<mxfile host="65bd71144e">
    <diagram name="上り通信" id="DmBdzgVS1BHwALY6w6nI">
        <mxGraphModel dx="992" dy="740" grid="1" gridSize="10" guides="1" tooltips="1" connect="1" arrows="1" fold="1" page="1" pageScale="1" pageWidth="1169" pageHeight="827" background="#FFFFFF" math="0" shadow="0">
            <root>
                <mxCell id="BCFTEfsaZ7yOC3XTp4j1-0"/>
                <mxCell id="BCFTEfsaZ7yOC3XTp4j1-1" parent="BCFTEfsaZ7yOC3XTp4j1-0"/>
                <mxCell id="BCFTEfsaZ7yOC3XTp4j1-5" value="Bridge VPC" style="points=[[0,0],[0.25,0],[0.5,0],[0.75,0],[1,0],[1,0.25],[1,0.5],[1,0.75],[1,1],[0.75,1],[0.5,1],[0.25,1],[0,1],[0,0.75],[0,0.5],[0,0.25]];outlineConnect=0;gradientColor=none;html=1;whiteSpace=wrap;fontSize=12;fontStyle=0;container=0;pointerEvents=0;collapsible=0;recursiveResize=0;shape=mxgraph.aws4.group;grIcon=mxgraph.aws4.group_vpc;strokeColor=#248814;fillColor=none;verticalAlign=top;align=left;spacingLeft=30;fontColor=#AAB7B8;dashed=0;" parent="BCFTEfsaZ7yOC3XTp4j1-1" vertex="1">
                    <mxGeometry x="390" y="80" width="180" height="320" as="geometry"/>
                </mxCell>
                <mxCell id="BCFTEfsaZ7yOC3XTp4j1-7" value="Corporate data center" style="points=[[0,0],[0.25,0],[0.5,0],[0.75,0],[1,0],[1,0.25],[1,0.5],[1,0.75],[1,1],[0.75,1],[0.5,1],[0.25,1],[0,1],[0,0.75],[0,0.5],[0,0.25]];outlineConnect=0;gradientColor=none;html=1;whiteSpace=wrap;fontSize=12;fontStyle=0;container=1;pointerEvents=0;collapsible=0;recursiveResize=0;shape=mxgraph.aws4.group;grIcon=mxgraph.aws4.group_corporate_data_center;strokeColor=#5A6C86;fillColor=none;verticalAlign=top;align=left;spacingLeft=30;fontColor=#5A6C86;dashed=0;" parent="BCFTEfsaZ7yOC3XTp4j1-1" vertex="1">
                    <mxGeometry x="160" y="80" width="190" height="320" as="geometry"/>
                </mxCell>
                <mxCell id="gFsK34k69OLk71-0nfJo-2" value="On-premise" style="sketch=0;outlineConnect=0;fontColor=#232F3E;gradientColor=none;fillColor=#232F3D;strokeColor=none;dashed=0;verticalLabelPosition=bottom;verticalAlign=top;align=center;html=1;fontSize=12;fontStyle=0;aspect=fixed;pointerEvents=1;shape=mxgraph.aws4.traditional_server;" parent="BCFTEfsaZ7yOC3XTp4j1-7" vertex="1">
                    <mxGeometry x="34.580000000000005" y="131" width="21.92" height="38" as="geometry"/>
                </mxCell>
                <mxCell id="gFsK34k69OLk71-0nfJo-4" value="FIrewall" style="sketch=0;outlineConnect=0;fontColor=#232F3E;gradientColor=none;fillColor=#232F3D;strokeColor=none;dashed=0;verticalLabelPosition=bottom;verticalAlign=top;align=center;html=1;fontSize=12;fontStyle=0;aspect=fixed;pointerEvents=1;shape=mxgraph.aws4.generic_firewall;labelBackgroundColor=default;" parent="BCFTEfsaZ7yOC3XTp4j1-7" vertex="1">
                    <mxGeometry x="110" y="135" width="35.45" height="30" as="geometry"/>
                </mxCell>
                <mxCell id="gFsK34k69OLk71-0nfJo-5" value="" style="edgeStyle=orthogonalEdgeStyle;html=1;endArrow=none;" parent="BCFTEfsaZ7yOC3XTp4j1-7" source="gFsK34k69OLk71-0nfJo-2" target="gFsK34k69OLk71-0nfJo-4" edge="1">
                    <mxGeometry relative="1" as="geometry">
                        <mxPoint x="56.5" y="150" as="sourcePoint"/>
                        <mxPoint x="330" y="150" as="targetPoint"/>
                    </mxGeometry>
                </mxCell>
                <mxCell id="BCFTEfsaZ7yOC3XTp4j1-37" value="" style="shape=flexArrow;endArrow=classic;html=1;" parent="BCFTEfsaZ7yOC3XTp4j1-1" edge="1">
                    <mxGeometry width="50" height="50" relative="1" as="geometry">
                        <mxPoint x="210" y="450" as="sourcePoint"/>
                        <mxPoint x="770" y="450" as="targetPoint"/>
                    </mxGeometry>
                </mxCell>
                <mxCell id="BCFTEfsaZ7yOC3XTp4j1-38" value="オンプレ環境からAWS上の新システムへの上りSFTP通信" style="edgeLabel;html=1;align=center;verticalAlign=middle;resizable=0;points=[];" parent="BCFTEfsaZ7yOC3XTp4j1-37" vertex="1" connectable="0">
                    <mxGeometry x="0.7143" y="1" relative="1" as="geometry">
                        <mxPoint x="-220" y="-19" as="offset"/>
                    </mxGeometry>
                </mxCell>
                <mxCell id="gFsK34k69OLk71-0nfJo-6" value="" style="edgeStyle=orthogonalEdgeStyle;html=1;startArrow=none;endArrow=none;" parent="BCFTEfsaZ7yOC3XTp4j1-1" source="gFsK34k69OLk71-0nfJo-4" target="BCFTEfsaZ7yOC3XTp4j1-6" edge="1">
                    <mxGeometry relative="1" as="geometry">
                        <mxPoint x="305.25619151590786" y="230" as="sourcePoint"/>
                        <mxPoint x="490" y="230" as="targetPoint"/>
                    </mxGeometry>
                </mxCell>
                <mxCell id="BCFTEfsaZ7yOC3XTp4j1-8" value="Private subnet" style="points=[[0,0],[0.25,0],[0.5,0],[0.75,0],[1,0],[1,0.25],[1,0.5],[1,0.75],[1,1],[0.75,1],[0.5,1],[0.25,1],[0,1],[0,0.75],[0,0.5],[0,0.25]];outlineConnect=0;gradientColor=none;html=1;whiteSpace=wrap;fontSize=12;fontStyle=0;container=1;pointerEvents=0;collapsible=0;recursiveResize=0;shape=mxgraph.aws4.group;grIcon=mxgraph.aws4.group_security_group;grStroke=0;strokeColor=#147EBA;fillColor=#E6F2F8;verticalAlign=top;align=left;spacingLeft=30;fontColor=#147EBA;dashed=0;" parent="BCFTEfsaZ7yOC3XTp4j1-1" vertex="1">
                    <mxGeometry x="420" y="120" width="120" height="260" as="geometry"/>
                </mxCell>
                <mxCell id="6" value="VPC Endpoint" style="sketch=0;outlineConnect=0;fontColor=#232F3E;gradientColor=none;fillColor=#4D27AA;strokeColor=none;dashed=0;verticalLabelPosition=bottom;verticalAlign=top;align=center;html=1;fontSize=12;fontStyle=0;aspect=fixed;pointerEvents=1;shape=mxgraph.aws4.endpoints;" parent="BCFTEfsaZ7yOC3XTp4j1-8" vertex="1">
                    <mxGeometry x="60" y="94.5" width="30" height="30" as="geometry"/>
                </mxCell>
                <mxCell id="1" value="VPC" style="points=[[0,0],[0.25,0],[0.5,0],[0.75,0],[1,0],[1,0.25],[1,0.5],[1,0.75],[1,1],[0.75,1],[0.5,1],[0.25,1],[0,1],[0,0.75],[0,0.5],[0,0.25]];outlineConnect=0;gradientColor=none;html=1;whiteSpace=wrap;fontSize=12;fontStyle=0;container=0;pointerEvents=0;collapsible=0;recursiveResize=0;shape=mxgraph.aws4.group;grIcon=mxgraph.aws4.group_vpc;strokeColor=#248814;fillColor=none;verticalAlign=top;align=left;spacingLeft=30;fontColor=#AAB7B8;dashed=0;" parent="BCFTEfsaZ7yOC3XTp4j1-1" vertex="1">
                    <mxGeometry x="610" y="80" width="180" height="320" as="geometry"/>
                </mxCell>
                <mxCell id="3" value="Private subnet" style="points=[[0,0],[0.25,0],[0.5,0],[0.75,0],[1,0],[1,0.25],[1,0.5],[1,0.75],[1,1],[0.75,1],[0.5,1],[0.25,1],[0,1],[0,0.75],[0,0.5],[0,0.25]];outlineConnect=0;gradientColor=none;html=1;whiteSpace=wrap;fontSize=12;fontStyle=0;container=1;pointerEvents=0;collapsible=0;recursiveResize=0;shape=mxgraph.aws4.group;grIcon=mxgraph.aws4.group_security_group;grStroke=0;strokeColor=#147EBA;fillColor=#E6F2F8;verticalAlign=top;align=left;spacingLeft=30;fontColor=#147EBA;dashed=0;" parent="BCFTEfsaZ7yOC3XTp4j1-1" vertex="1">
                    <mxGeometry x="640" y="120" width="120" height="260" as="geometry"/>
                </mxCell>
                <mxCell id="4" style="edgeStyle=none;html=1;entryX=0;entryY=0.5;entryDx=0;entryDy=0;entryPerimeter=0;startArrow=none;" parent="BCFTEfsaZ7yOC3XTp4j1-1" source="8" target="0" edge="1">
                    <mxGeometry relative="1" as="geometry"/>
                </mxCell>
                <mxCell id="5" value="" style="sketch=0;outlineConnect=0;fontColor=#232F3E;gradientColor=none;fillColor=#067F68;strokeColor=none;dashed=0;verticalLabelPosition=bottom;verticalAlign=top;align=center;html=1;fontSize=12;fontStyle=0;aspect=fixed;shape=mxgraph.aws4.transfer_for_sftp_resource;" parent="BCFTEfsaZ7yOC3XTp4j1-1" vertex="1">
                    <mxGeometry x="620" y="410" width="29.23" height="30" as="geometry"/>
                </mxCell>
                <mxCell id="7" value="" style="edgeStyle=none;html=1;entryX=0;entryY=0.5;entryDx=0;entryDy=0;entryPerimeter=0;endArrow=none;" parent="BCFTEfsaZ7yOC3XTp4j1-1" source="gFsK34k69OLk71-0nfJo-4" target="6" edge="1">
                    <mxGeometry relative="1" as="geometry">
                        <mxPoint x="305.25619151590786" y="230" as="sourcePoint"/>
                        <mxPoint x="680" y="230" as="targetPoint"/>
                    </mxGeometry>
                </mxCell>
                <mxCell id="11" style="edgeStyle=none;html=1;entryX=0;entryY=0.5;entryDx=0;entryDy=0;entryPerimeter=0;" edge="1" parent="BCFTEfsaZ7yOC3XTp4j1-1" source="0" target="10">
                    <mxGeometry relative="1" as="geometry"/>
                </mxCell>
                <mxCell id="0" value="Transfer for SFTP" style="sketch=0;points=[[0,0,0],[0.25,0,0],[0.5,0,0],[0.75,0,0],[1,0,0],[0,1,0],[0.25,1,0],[0.5,1,0],[0.75,1,0],[1,1,0],[0,0.25,0],[0,0.5,0],[0,0.75,0],[1,0.25,0],[1,0.5,0],[1,0.75,0]];outlineConnect=0;fontColor=#232F3E;gradientColor=#4AB29A;gradientDirection=north;fillColor=#116D5B;strokeColor=#ffffff;dashed=0;verticalLabelPosition=bottom;verticalAlign=top;align=center;html=1;fontSize=12;fontStyle=0;aspect=fixed;shape=mxgraph.aws4.resourceIcon;resIcon=mxgraph.aws4.transfer_for_sftp;" parent="BCFTEfsaZ7yOC3XTp4j1-1" vertex="1">
                    <mxGeometry x="810" y="211" width="40" height="40" as="geometry"/>
                </mxCell>
                <mxCell id="8" value="VPC Endpoint" style="sketch=0;outlineConnect=0;fontColor=#232F3E;gradientColor=none;fillColor=#4D27AA;strokeColor=none;dashed=0;verticalLabelPosition=bottom;verticalAlign=top;align=center;html=1;fontSize=12;fontStyle=0;aspect=fixed;pointerEvents=1;shape=mxgraph.aws4.endpoints;" vertex="1" parent="BCFTEfsaZ7yOC3XTp4j1-1">
                    <mxGeometry x="700" y="215" width="30" height="30" as="geometry"/>
                </mxCell>
                <mxCell id="9" value="" style="edgeStyle=none;html=1;entryX=0;entryY=0.5;entryDx=0;entryDy=0;entryPerimeter=0;startArrow=none;endArrow=none;" edge="1" parent="BCFTEfsaZ7yOC3XTp4j1-1" source="6" target="8">
                    <mxGeometry relative="1" as="geometry">
                        <mxPoint x="510" y="229.57142857142856" as="sourcePoint"/>
                        <mxPoint x="810" y="231" as="targetPoint"/>
                    </mxGeometry>
                </mxCell>
                <mxCell id="BCFTEfsaZ7yOC3XTp4j1-6" value="DirectConnect" style="sketch=0;points=[[0,0,0],[0.25,0,0],[0.5,0,0],[0.75,0,0],[1,0,0],[0,1,0],[0.25,1,0],[0.5,1,0],[0.75,1,0],[1,1,0],[0,0.25,0],[0,0.5,0],[0,0.75,0],[1,0.25,0],[1,0.5,0],[1,0.75,0]];outlineConnect=0;fontColor=#232F3E;gradientColor=#945DF2;gradientDirection=north;fillColor=#5A30B5;strokeColor=#ffffff;dashed=0;verticalLabelPosition=bottom;verticalAlign=top;align=center;html=1;fontSize=12;fontStyle=0;aspect=fixed;shape=mxgraph.aws4.resourceIcon;resIcon=mxgraph.aws4.direct_connect;" parent="BCFTEfsaZ7yOC3XTp4j1-1" vertex="1">
                    <mxGeometry x="351" y="210" width="39" height="39" as="geometry"/>
                </mxCell>
                <mxCell id="BCFTEfsaZ7yOC3XTp4j1-35" value="AWS PrivateLink" style="sketch=0;points=[[0,0,0],[0.25,0,0],[0.5,0,0],[0.75,0,0],[1,0,0],[0,1,0],[0.25,1,0],[0.5,1,0],[0.75,1,0],[1,1,0],[0,0.25,0],[0,0.5,0],[0,0.75,0],[1,0.25,0],[1,0.5,0],[1,0.75,0]];outlineConnect=0;fontColor=#232F3E;gradientColor=#945DF2;gradientDirection=north;fillColor=#5A30B5;strokeColor=#ffffff;dashed=0;verticalLabelPosition=bottom;verticalAlign=top;align=center;html=1;fontSize=12;fontStyle=0;aspect=fixed;shape=mxgraph.aws4.resourceIcon;resIcon=mxgraph.aws4.vpc_privatelink;" parent="BCFTEfsaZ7yOC3XTp4j1-1" vertex="1">
                    <mxGeometry x="570" y="210" width="40" height="40" as="geometry"/>
                </mxCell>
                <mxCell id="10" value="S3" style="sketch=0;points=[[0,0,0],[0.25,0,0],[0.5,0,0],[0.75,0,0],[1,0,0],[0,1,0],[0.25,1,0],[0.5,1,0],[0.75,1,0],[1,1,0],[0,0.25,0],[0,0.5,0],[0,0.75,0],[1,0.25,0],[1,0.5,0],[1,0.75,0]];outlineConnect=0;fontColor=#232F3E;gradientColor=#60A337;gradientDirection=north;fillColor=#277116;strokeColor=#ffffff;dashed=0;verticalLabelPosition=bottom;verticalAlign=top;align=center;html=1;fontSize=12;fontStyle=0;aspect=fixed;shape=mxgraph.aws4.resourceIcon;resIcon=mxgraph.aws4.s3;" vertex="1" parent="BCFTEfsaZ7yOC3XTp4j1-1">
                    <mxGeometry x="910" y="211" width="40" height="40" as="geometry"/>
                </mxCell>
            </root>
        </mxGraphModel>
    </diagram>
</mxfile>